<svg width="64" height="64" viewBox="0 0 80 80" fill="none" xmlns="http://www.w3.org/2000/svg">
  <rect x="0" y="0" width="80" height="80" rx="10" fill="none" stroke="#3D7A4A" stroke-width="4"/>
  <rect x="4" y="52" width="72" height="5" rx="2" fill="#3D7A4A"/>
  <rect x="10.75" y="57" width="2.5" height="12" rx="1" fill="#3D7A4A"/>
  <rect x="24.75" y="57" width="2.5" height="12" rx="1" fill="#3D7A4A"/>
  <rect x="38.75" y="57" width="2.5" height="12" rx="1" fill="#3D7A4A"/>
  <rect x="52.75" y="57" width="2.5" height="12" rx="1" fill="#3D7A4A"/>
  <rect x="66.75" y="57" width="2.5" height="12" rx="1" fill="#3D7A4A"/>
  <rect x="4" y="69" width="72" height="3" rx="1" fill="#3D7A4A"/>
  <circle cx="40" cy="28" r="14" fill="#E8961A"/>
  <line x1="40" y1="8" x2="40" y2="2" stroke="#E8961A" stroke-width="3.5" stroke-linecap="round"/>
  <line x1="26" y1="14" x2="21" y2="9" stroke="#E8961A" stroke-width="3.5" stroke-linecap="round"/>
  <line x1="54" y1="14" x2="59" y2="9" stroke="#E8961A" stroke-width="3.5" stroke-linecap="round"/>
  <line x1="20" y1="28" x2="14" y2="28" stroke="#E8961A" stroke-width="3.5" stroke-linecap="round"/>
  <line x1="60" y1="28" x2="66" y2="28" stroke="#E8961A" stroke-width="3.5" stroke-linecap="round"/>
  <line x1="26" y1="42" x2="21" y2="47" stroke="#E8961A" stroke-width="3" stroke-linecap="round"/>
  <line x1="54" y1="42" x2="59" y2="47" stroke="#E8961A" stroke-width="3" stroke-linecap="round"/>
</svg>
